<?xml version="1.0" encoding="UTF-8"?>
<svg xmlns="http://www.w3.org/2000/svg" version="1.1" viewBox="0 0 256 256"  fill="currentColor">
    <path d="M128,231.8c-26.2,0-52.4-9.7-72.5-29.3-19.9-19.4-31.1-45.3-31.5-73.1-.4-27.8,10.1-54,29.5-73.9,19.5-20,46.6-31.5,74.5-31.5s.4,0,.6,0c8.9.1,16.1,7.5,15.9,16.3,0,1.1-.1,2.1-.4,3.1-1.4,6.3-.3,12.8,3.1,18.2,3.4,5.4,8.8,9.2,15,10.6,1.6.4,3.2.6,4.9.6,8.8,0,15.9,7.2,15.9,15.9,0,6.4,2.7,12.4,7.3,16.8,4.6,4.5,10.7,6.9,17.1,6.8,1.7,0,3.3-.2,4.9-.6,8.7-1.9,17.3,3.7,19.2,12.3.2,1,.3,2.1.4,3.1,0,0,0,0,0,0,.2,27.7-10.9,54.7-30.6,74.2-20.1,20.1-46.8,30.2-73.4,30.2ZM128,40c-23.6,0-46.5,9.7-63,26.6-16.4,16.8-25.2,39.1-24.9,62.6.3,23.5,9.8,45.5,26.6,61.9,34.3,33.4,89.7,33,123.5-.8,16.6-16.5,26-39.4,25.9-62.7,0,0,0,0,0,0,0,0,0,0-.1,0-2.6.6-5.4.9-8.2,1-10.7,0-20.8-3.9-28.4-11.3-7.7-7.5-11.9-17.4-12.1-28.1,0,0,0,0,0-.1,0,0,0,0-.1,0-2.8,0-5.5-.4-8.2-1-10.4-2.3-19.3-8.6-25-17.6-5.7-9-7.6-19.7-5.2-30.2,0,0,0,0-.1,0-.2,0-.3,0-.5,0Z"/>
    <circle cx="156" cy="172" r="12"/>
    <circle cx="92" cy="164" r="12"/>
    <circle cx="84" cy="108" r="12"/>
    <circle cx="136" cy="124" r="12"/>
</svg>