<?xml version="1.0" encoding="utf-8"?>
<!-- Generator: Adobe Illustrator 28.1.0, SVG Export Plug-In . SVG Version: 6.00 Build 0)  -->
<svg version="1.1" id="Ebene_1" xmlns="http://www.w3.org/2000/svg" xmlns:xlink="http://www.w3.org/1999/xlink" x="0px" y="0px"
	 viewBox="0 0 180.8 180.6" style="enable-background:new 0 0 180.8 180.6;" xml:space="preserve">
<path d="M174.2,98.3H6.6c-0.8,0-1.4-0.6-1.4-1.4V83.3c0-0.8,0.6-1.4,1.4-1.4h167.5c0.8,0,1.4,0.6,1.4,1.4v13.6
	C175.6,97.7,174.9,98.3,174.2,98.3z"/>
<path d="M82.2,173.9V6.4c0-0.8,0.6-1.4,1.4-1.4h13.6c0.8,0,1.4,0.6,1.4,1.4v167.5c0,0.8-0.6,1.4-1.4,1.4H83.6
	C82.8,175.3,82.2,174.7,82.2,173.9z"/>
</svg>
